<svg width="32" height="31" viewBox="0 0 32 31" fill="none" xmlns="http://www.w3.org/2000/svg">
<g clip-path="url(#clip0_19_596)">
<path d="M19.2703 23.8217C20.4589 25.9342 23.0916 26.658 25.1504 25.4384C27.2093 24.2187 27.8224 21.3537 26.726 19.405C25.6296 17.4565 24.0149 16.8734 22.1334 17.1219L24.5458 12.8391C26.9714 13.2908 29.195 14.7929 30.5243 17.155C32.9239 21.4199 31.4999 26.8732 27.3433 29.3355C23.1868 31.7977 17.8719 30.3365 15.4721 26.0717L10.8832 17.9167L15.9551 17.9302L19.2703 23.8217Z" fill="#00FFD0"/>
<path d="M19.5788 11.3887C20.7675 9.27624 20.062 6.57505 18.0031 5.35542C15.9444 4.13579 13.2195 5.02347 12.1231 6.97204C11.0266 8.92059 11.3417 10.6469 12.4923 12.1944L7.67117 12.1923C6.83959 9.81105 6.99566 7.08422 8.32486 4.72204C10.7246 0.457253 16.0396 -1.00397 20.196 1.4583C24.3526 3.92057 25.7767 9.37392 23.377 13.6387L18.7882 21.7938L16.2636 17.2803L19.5788 11.3887Z" fill="#00FFD0"/>
<path d="M9.01524 17.3334C6.6379 17.3334 4.71068 19.3107 4.71068 21.75C4.71068 24.1894 6.82235 26.1667 9.01524 26.1667C11.2081 26.1667 12.5077 25.0235 13.2386 23.2274L15.6473 27.5124C14.0532 29.442 11.6736 30.6667 9.01524 30.6667C4.2157 30.6667 0.32489 26.6745 0.32489 21.75C0.32489 16.8255 4.2157 12.8334 9.01524 12.8334H18.1929L15.6456 17.3334H9.01524Z" fill="#00FFD0"/>
</g>
<defs>
<clipPath id="clip0_19_596">
<rect width="32" height="31" fill="white"/>
</clipPath>
</defs>
</svg>
