<svg width="24" height="24" viewBox="0 0 24 24" fill="none" xmlns="http://www.w3.org/2000/svg">
<path d="M19.7344 20.7631L19.7343 20.763L3.23472 4.26344C3.23465 4.26337 3.23458 4.26329 3.23451 4.26322C3.10414 4.12588 3.03253 3.94306 3.03496 3.7537C3.03738 3.56424 3.11372 3.38322 3.2477 3.24924C3.38168 3.11526 3.5627 3.03892 3.75216 3.0365C3.94152 3.03407 4.12434 3.10568 4.26168 3.23606C4.26175 3.23612 4.26182 3.23619 4.2619 3.23626L20.7615 19.7359C20.863 19.8375 20.9322 19.9669 20.9602 20.1078C20.9882 20.2487 20.9738 20.3947 20.9188 20.5274C20.8639 20.6602 20.7708 20.7736 20.6514 20.8534C20.5319 20.9333 20.3915 20.9759 20.2479 20.976C20.1525 20.9762 20.058 20.9574 19.9698 20.9209C19.8817 20.8843 19.8017 20.8307 19.7344 20.7631Z" fill="#D9DBE1" stroke="#D9DBE1" stroke-width="0.0468748"/>
<path d="M14.5611 17.7447C14.5378 17.722 14.509 17.7058 14.4775 17.6975C14.4461 17.6893 14.413 17.6894 14.3816 17.6979C13.5982 17.8996 12.7924 18.0015 11.9834 18.0011C10.0386 18.0011 8.16312 17.4255 6.40906 16.2902M14.5611 17.7447L14.5445 17.7613L14.5446 17.7614C14.5243 17.7416 14.4991 17.7274 14.4716 17.7202C14.4441 17.713 14.4151 17.7131 14.3876 17.7205L14.3874 17.7206C13.6021 17.9228 12.7944 18.0249 11.9834 18.0246C10.0337 18.0246 8.1539 17.4475 6.39634 16.3099M14.5611 17.7447L15.5727 18.7563L14.5611 17.7447ZM6.39634 16.3099L6.40906 16.2902M6.39634 16.3099C6.39634 16.3099 6.39633 16.3099 6.39632 16.3099L6.40906 16.2902M6.39634 16.3099C4.79621 15.2766 3.35624 13.7971 2.23149 12.0372L2.22343 12.0246H2.2278V12.0208V12.0045L2.23202 12.0074C3.16775 10.6667 4.19289 9.53258 5.2944 8.61794L5.30937 8.63598L2.25124 12.0246M6.40906 16.2902C4.81203 15.259 3.37437 13.7819 2.25124 12.0246M2.25124 12.0246V12.0208V12.0246ZM5.2993 8.51468L5.29937 8.51475L5.31593 8.49816L5.29926 8.51463M5.2993 8.51468L14.5447 17.7615L15.5561 18.7729L15.5561 18.7729C15.5646 18.7813 15.5708 18.7918 15.574 18.8033C15.5773 18.8148 15.5777 18.827 15.5749 18.8386C15.5722 18.8503 15.5666 18.861 15.5586 18.8699C15.5505 18.8787 15.5404 18.8854 15.5291 18.8893C14.3866 19.2752 13.1893 19.474 11.9834 19.4777C9.74945 19.4777 7.6023 18.8229 5.60664 17.5301L5.60663 17.5301C3.83406 16.3831 2.24309 14.7539 1.00677 12.8191L1.00672 12.8191C0.848511 12.5736 0.766847 12.2866 0.772105 11.9947C0.777363 11.7027 0.869304 11.4188 1.03624 11.1792C2.02101 9.76694 3.10388 8.56101 4.27025 7.57812L4.27027 7.5781C4.28377 7.56671 4.30107 7.56081 4.31873 7.56159C4.33638 7.56237 4.35309 7.56978 4.36554 7.58232L4.36562 7.5824L5.29926 8.51463M5.2993 8.51468C5.29929 8.51466 5.29927 8.51465 5.29926 8.51463M5.2993 8.51468L5.29926 8.51463" fill="#D9DBE1" stroke="#D9DBE1" stroke-width="0.0468748"/>
<path d="M12.0006 7.50079C11.6636 7.50061 11.3276 7.53835 10.9989 7.61329C10.9823 7.61674 10.967 7.62462 10.9545 7.6361C10.942 7.64758 10.9329 7.66223 10.9281 7.67849C10.9233 7.69475 10.923 7.712 10.9272 7.72842C10.9314 7.74484 10.94 7.75981 10.9521 7.77173L16.2297 13.048C16.2416 13.06 16.2566 13.0686 16.273 13.0729C16.2894 13.0771 16.3067 13.0768 16.323 13.0719C16.3392 13.0671 16.3539 13.058 16.3653 13.0455C16.3768 13.0331 16.3847 13.0177 16.3882 13.0011C16.5384 12.3421 16.5383 11.6576 16.3877 10.9987C16.2372 10.3397 15.9401 9.72307 15.5186 9.19464C15.0971 8.66621 14.562 8.23953 13.9529 7.94629C13.3439 7.65305 12.6766 7.50078 12.0006 7.50079Z" fill="#D9DBE1"/>
<path d="M7.77015 10.9575C7.75822 10.9455 7.74326 10.9369 7.72684 10.9326C7.71042 10.9284 7.69316 10.9287 7.6769 10.9335C7.66065 10.9383 7.646 10.9475 7.63452 10.96C7.62304 10.9724 7.61516 10.9878 7.61171 11.0044C7.44171 11.747 7.46306 12.5207 7.67375 13.2529C7.88443 13.985 8.27756 14.6517 8.81628 15.1904C9.35501 15.7292 10.0217 16.1223 10.7538 16.333C11.486 16.5437 12.2597 16.565 13.0023 16.395C13.0189 16.3916 13.0343 16.3837 13.0468 16.3722C13.0592 16.3607 13.0684 16.3461 13.0732 16.3298C13.078 16.3136 13.0783 16.2963 13.0741 16.2799C13.0699 16.2635 13.0613 16.2485 13.0492 16.2366L7.77015 10.9575Z" fill="#D9DBE1"/>
</svg>
